<?xml version="1.0" encoding="utf-8"?>
<!-- Generator: Adobe Illustrator 19.2.1, SVG Export Plug-In . SVG Version: 6.00 Build 0)  -->
<svg version="1.1" id="Layer_1" xmlns="http://www.w3.org/2000/svg" xmlns:xlink="http://www.w3.org/1999/xlink" x="0px" y="0px"
	 viewBox="0 0 211 209.5" style="enable-background:new 0 0 211 209.5;" xml:space="preserve">
<style type="text/css">
	.st0{fill:#6B9D6D;}
	.st1{fill:#FEFEFE;}
	.st2{fill:#FDFEFD;}
</style>
<g>
	<path class="st0" d="M205.7,105.3c0,28.3,0,56.6,0,85c0,10-4.7,14.5-14.8,14.5c-57.1,0-114.2,0-171.2,0c-9.8,0-14.5-4.6-14.5-14.3
		c0-57.1,0-114.3,0-171.4c0-9.7,4.7-14.3,14.5-14.3c57.1,0,114.2,0,171.2,0c10.1,0,14.8,4.6,14.8,14.5
		C205.8,47.9,205.7,76.6,205.7,105.3z"/>
	<path class="st1" d="M105.1,8.8c28.5,0,57.1,0,85.6,0c8.2,0,11.1,2.9,11.1,11.1c0,56.5,0,112.9,0,169.4c0,8.6-2.8,11.5-11.3,11.5
		c-56.7,0-113.5,0-170.2,0c-8.2,0-11-2.8-11-11.1c0-56.6,0-113.3,0-169.9c0-8.2,2.9-11,11.2-11C48.7,8.7,76.9,8.8,105.1,8.8z"/>
	<path class="st0" d="M105.4,107.8c-5,16.1-12.1,30.8-21.8,44.3c-1.5,2-2.9,2.8-5.3,2.8c-16.2,0.1-32.4,0.3-48.5,0.5
		c-1.6,0-3.6,0.5-4.6-1.2c-1.1-1.8,0.7-3,1.6-4.3c4.5-6.4,9.1-12.8,13.7-19.1c1.3-1.7,2-3.2,0.9-5.4c-1.6-2.9-0.4-4.4,2.7-4.6
		c3.3-0.2,5.3-2.2,7.1-4.8c17.7-24.6,35.4-49.2,53.2-73.8c3.4-4.7,3.7-4.7,7-0.1c25.6,35.8,51.1,71.6,76.7,107.4
		c1,1.4,3,2.7,1.9,4.7c-1.1,1.9-3.3,1.3-5.1,1.2c-24.7-0.2-49.4-0.5-74.1-0.7c-3.9,0-5.6-1.1-5.5-5.4
		C105.6,135.4,105.4,121.6,105.4,107.8z"/>
	<path class="st1" d="M184,150.7c-18.4,0-35.9,0-53.4,0c-5.5,0-11-0.3-16.5,0c-3.8,0.2-4.8-1-4.7-4.7c0.4-27.5-0.4-54.9,1.1-82.4
		c0.3-4.6,0-9.3,0.9-14.5C135.4,82.8,159.5,116.4,184,150.7z"/>
	<path class="st1" d="M106.1,57.7c0.2,31.6-4.9,61.8-23.4,88.5c-2,2.9-3.7,3.8-7.3,2.7c-12.1-3.7-22.1-10-28.5-21.2
		c-1.1-1.9-1.5-3.1,1.3-3.9c19.3-5,32-18.3,42.3-34.4C96.9,79.5,101.6,68.7,106.1,57.7z"/>
	<path class="st2" d="M100.4,54.7C100,74.3,73.8,110,55.9,116.3C71,95.5,85.7,75.1,100.4,54.7z"/>
	<path class="st1" d="M66.3,151c-11.4,0-22.9,0-35.3,0c4.4-6.1,8.4-11.7,12.5-17.2c1.4-1.9,2.2-0.4,3,0.6
		C51.5,141.6,58.6,146.4,66.3,151z"/>
</g>
</svg>
