<?xml version="1.0" encoding="utf-8"?>
<!-- Generator: Adobe Illustrator 19.2.1, SVG Export Plug-In . SVG Version: 6.00 Build 0)  -->
<svg version="1.1" id="Layer_1" xmlns="http://www.w3.org/2000/svg" xmlns:xlink="http://www.w3.org/1999/xlink" x="0px" y="0px"
	 viewBox="0 0 211 209.5" style="enable-background:new 0 0 211 209.5;" xml:space="preserve">
<style type="text/css">
	.st0{fill:#6B9D6D;}
	.st1{fill:#FEFEFE;}
</style>
<g>
	<path class="st0" d="M105.7,4.7c28.5,0,57,0,85.5,0c9.5,0,14.5,4.9,14.5,14.4c0,57,0,114,0,171c0,9.9-4.9,14.6-14.8,14.6
		c-57,0-114,0-171,0c-9.9,0-14.7-4.7-14.7-14.7c0-56.8,0-113.6,0-170.5c0-10.3,4.7-14.9,15-14.9C48.7,4.7,77.2,4.7,105.7,4.7z"/>
	<path class="st1" d="M105.4,200.7c-28.3,0-56.7,0-85,0c-8.1,0-10.9-2.7-10.9-10.7c0-56.8,0-113.7,0-170.5c0-8,2.8-10.8,10.8-10.8
		c56.8,0,113.7,0,170.5,0c7.4,0,10.8,3.1,10.9,10.5c0.1,57,0.1,114,0,171c0,7.4-3.4,10.5-10.8,10.5
		C162.4,200.8,133.9,200.7,105.4,200.7z"/>
	<path class="st0" d="M43.8,42.7c12.4,0.1,24.5-2.1,36.6-4.4c1.8-0.3,3.6-0.7,5.4-0.9c8-1.1,10,0.3,12,8.1
		c6.4,24.6,19.5,45.4,36.9,63.6c6.3,6.7,14.4,9.9,23.6,10.6c6.8,0.6,13.5,1.8,19.4,5.8c3.7,2.5,6.6,5.8,6.9,10.4
		c0.1,2.1,1.3,3.2,2.5,4.6c3.8,4.5,3.5,10-0.7,14c-0.4,0.3-1,0.6-1.1,1c-3.6,11.6-14.4,10.6-23.1,13c-10.2,2.8-20.6,2.9-31.1,2.6
		c-4.4-0.1-9-0.7-13.6,0.1c-4.3,0.7-8.8-1.3-13.4-0.9c-0.6,0-1.6-0.2-1.8-0.6c-3.5-7.5-11.5-5.1-17.1-7.7c-1.2-0.6-2.6-0.5-3.9-1
		c-4.6-1.9-7.3-1.4-9,4.2c-1.3,4.3-4.7,6.4-10.2,6.3c-11.1-0.2-22-2.5-33-2.9c-4.7-0.2-5.9-4.1-6.1-7.5c-0.5-6.6-0.2-13.3-0.1-20
		c0-0.5-0.2-1.2,0.1-1.5c5.4-5.2,2.6-12,3.3-18.1c1.2-10.3,3.4-20.3,5.7-30.4c2.2-10,0.1-19.9,0-29.8c-0.1-4.7,0.1-9.3,0-14
		c-0.1-3.9,1.3-5.5,5.4-4.8C39.4,43,41.7,42.7,43.8,42.7z"/>
	<path class="st1" d="M130.2,154.2c-13,1.3-27.4-3.8-42.1-7.2c-16.1-3.7-32.6-4.7-48.9-7.1c-8.2-1.2-9.2-2.3-9.6-10.5
		c-0.5-9.2,1.1-18.3,3.5-27.1c3.6-13.6,3.9-27.2,2.2-41c-0.5-3.9-0.2-8-0.1-12c0-2.2,0.7-3.6,3.6-3.4c15.2,0.7,30.2-1.7,45-4.8
		c8.2-1.7,9-0.9,11.3,7.3c7,24.4,19.8,45.3,37.4,63.4c8.1,8.4,18.7,11.1,29.9,12.1c4.9,0.4,9.5,1.8,13.5,4.6
		c7.3,5,7.3,11.9,0.2,17.1c-6.1,4.4-13.3,6.1-20.5,7.2C148,153.8,140.3,154,130.2,154.2z"/>
	<path class="st1" d="M183.4,142.6c2.8,3.7,3.8,6.9-0.4,9.6c-1.9,1.2-3.4,2.4-3.1,5.1c0.2,1.7-0.9,3-2.8,1.4
		c-3.2-2.7-5.2-1.6-5.9,2.1c-0.5,2.3-0.9,2.9-2.6,0.8c-2.2-2.7-3.8-2-4.9,1.1c-0.7,1.9-1.8,3.2-3.4,1.1c-2.3-3.1-3.6-2-4.9,0.7
		c-1.1,2.5-2.1,3.4-3.9,0.3c-1.6-2.8-3.4-2.4-4.6,0.5c-1.1,2.6-2.2,3.4-3.9,0.5c-1.7-2.9-3.6-2.7-5.3-0.1c-1.3,2-2.2,2.9-3.8,0.2
		c-1.8-3-3.9-2.8-5.7,0.1c-1.2,1.9-2.1,2.5-3.5,0.1c-2-3.5-4.3-3.3-6.4-0.2c-1.5,2.2-2.4,2.6-3.7-0.2c-1.6-3.4-4-3.9-6.4-0.7
		c-1.5,2-2.7,2.7-3.6-0.3c-0.6-1.9-2-2.4-3.7-2.9c-8.1-2-16.2-3.8-24.2-6c-3.5-1-5.4,0-6.2,3.5c-0.6,2.7-2.4,4.6-4.1,6.7
		c-1.7,2-2.6,2.3-3.8-0.4c-1.1-2.6-3-2.7-4.4-0.4c-1.9,3.3-3,3.2-4.3-0.3c-1.1-2.8-2.7-2.7-4.3-0.4c-1.5,2.3-2.8,3.7-4.1-0.2
		c-0.9-2.6-3-2.8-4.5-0.5c-1.7,2.6-2.8,2.7-4-0.2c-1.3-3-3.2-2.6-4.8-0.4c-2,2.9-2.9,1.5-4.1-0.7c-0.9-1.7-1.4-3.3-1.3-5.2
		c0.1-3-0.1-6,0.1-9c0.1-2.8-1.3-6.4,0.6-8.2c2.1-1.9,4.4,1.6,6.9,2.2c9.5,2,19.1,2.7,28.7,3.8c14.7,1.8,29.1,5.4,43.5,8.8
		c20,4.7,40,3.3,59.8-1.3C173.2,152,179.1,148.6,183.4,142.6z"/>
</g>
</svg>
